<svg width="300" height="610" viewBox="0 0 300 610" fill="none" xmlns="http://www.w3.org/2000/svg">
<rect x="9.5022" y="5" width="280.995" height="600" rx="32.5792" fill="white" stroke="#22374D" stroke-width="8.1448"/>
<rect x="0.678733" y="96.629" width="10.8597" height="48.8688" rx="4.75113" fill="#22374D" stroke="#22374D" stroke-width="1.35747"/>
<rect x="288.462" y="96.629" width="10.8597" height="76.0181" rx="4.75113" fill="#22374D" stroke="#22374D" stroke-width="1.35747"/>
<rect x="0.678733" y="159.072" width="10.8597" height="48.8688" rx="4.75113" fill="#22374D" stroke="#22374D" stroke-width="1.35747"/>
<mask id="path-5-inside-1_134_832" fill="white">
<path d="M13.5745 37.5792C13.5745 21.8353 26.3374 9.07239 42.0813 9.07239H257.918C273.662 9.07239 286.425 21.8353 286.425 37.5792V81.0181H13.5745V37.5792Z"/>
</mask>
<path d="M13.5745 37.5792C13.5745 21.8353 26.3374 9.07239 42.0813 9.07239H257.918C273.662 9.07239 286.425 21.8353 286.425 37.5792V81.0181H13.5745V37.5792Z" fill="#F5F5F5"/>
<path d="M13.5745 9.07239H286.425H13.5745ZM286.425 81.6968H13.5745V80.3393H286.425V81.6968ZM13.5745 81.0181V9.07239V81.0181ZM286.425 9.07239V81.0181V9.07239Z" fill="#E9E9EB" mask="url(#path-5-inside-1_134_832)"/>
<circle cx="150.945" cy="38.7496" r="18.8174" fill="#22374D"/>
<mask id="mask0_134_832" style="mask-type:alpha" maskUnits="userSpaceOnUse" x="134" y="22" width="35" height="35">
<g clip-path="url(#clip0_134_832)">
<path d="M151.193 41.1154C140.118 41.1154 136.227 46.7277 136.227 50.4691V56.0814H166.159V50.4691C166.159 46.7277 162.267 41.1154 151.193 41.1154Z" fill="#333333"/>
<path d="M151.192 39.2447C155.842 39.2447 159.611 35.4757 159.611 30.8264C159.611 26.1771 155.842 22.4081 151.192 22.4081C146.543 22.4081 142.774 26.1771 142.774 30.8264C142.774 35.4757 146.543 39.2447 151.192 39.2447Z" fill="#333333"/>
</g>
</mask>
<g mask="url(#mask0_134_832)">
<circle cx="150.955" cy="38.059" r="18.0223" fill="#F5F5F5"/>
</g>
<path d="M129.023 65.5538C129.312 65.5559 129.597 65.6086 129.878 65.712C130.159 65.8154 130.412 65.9843 130.638 66.2185C130.865 66.4527 131.047 66.7693 131.182 67.1681C131.319 67.5648 131.389 68.0586 131.391 68.6495C131.391 69.2171 131.334 69.7225 131.22 70.1656C131.106 70.6067 130.943 70.9791 130.729 71.283C130.518 71.5869 130.262 71.8179 129.96 71.9762C129.658 72.1345 129.319 72.2136 128.941 72.2136C128.555 72.2136 128.212 72.1376 127.912 71.9857C127.613 71.8338 127.369 71.6238 127.181 71.3558C126.993 71.0857 126.876 70.7755 126.83 70.4252H127.795C127.858 70.7037 127.987 70.9295 128.181 71.1026C128.378 71.2735 128.631 71.359 128.941 71.359C129.416 71.359 129.786 71.1522 130.052 70.7386C130.318 70.3229 130.452 69.7425 130.454 68.9976H130.403C130.294 69.1791 130.156 69.3353 129.992 69.4661C129.829 69.5969 129.647 69.6982 129.444 69.77C129.242 69.8417 129.025 69.8776 128.795 69.8776C128.422 69.8776 128.082 69.7858 127.776 69.6022C127.47 69.4186 127.226 69.1665 127.045 68.8457C126.863 68.525 126.773 68.1588 126.773 67.7473C126.773 67.338 126.866 66.9666 127.051 66.6332C127.239 66.2997 127.501 66.036 127.836 65.8418C128.174 65.6456 128.57 65.5496 129.023 65.5538ZM129.026 66.3768C128.78 66.3768 128.557 66.438 128.359 66.5603C128.162 66.6806 128.007 66.8442 127.893 67.051C127.779 67.2557 127.722 67.4836 127.722 67.7347C127.722 67.9858 127.777 68.2137 127.887 68.4184C127.999 68.621 128.151 68.7824 128.343 68.9027C128.537 69.0209 128.758 69.0799 129.007 69.0799C129.193 69.0799 129.366 69.0441 129.527 68.9723C129.687 68.9006 129.827 68.8014 129.948 68.6748C130.068 68.5461 130.162 68.4005 130.229 68.238C130.297 68.0755 130.331 67.9046 130.331 67.7252C130.331 67.4867 130.274 67.2652 130.16 67.0605C130.048 66.8558 129.894 66.6912 129.697 66.5667C129.501 66.4401 129.278 66.3768 129.026 66.3768ZM134.791 72.2136C134.357 72.2136 133.968 72.1387 133.626 71.9889C133.287 71.839 133.018 71.6312 132.819 71.3653C132.623 71.0973 132.518 70.7871 132.503 70.4347H133.497C133.509 70.6267 133.574 70.7934 133.69 70.9348C133.808 71.0741 133.962 71.1817 134.152 71.2577C134.342 71.3336 134.553 71.3716 134.785 71.3716C135.04 71.3716 135.266 71.3273 135.462 71.2387C135.661 71.1501 135.816 71.0266 135.928 70.8683C136.039 70.708 136.095 70.5233 136.095 70.3144C136.095 70.0971 136.039 69.9061 135.928 69.7415C135.818 69.5748 135.656 69.4439 135.443 69.349C135.232 69.254 134.977 69.2066 134.677 69.2066H134.13V68.4089H134.677C134.918 68.4089 135.129 68.3656 135.31 68.2791C135.494 68.1926 135.637 68.0723 135.741 67.9183C135.844 67.7621 135.896 67.5796 135.896 67.3707C135.896 67.1702 135.851 66.9961 135.76 66.8484C135.671 66.6986 135.545 66.5815 135.38 66.497C135.218 66.4126 135.026 66.3704 134.804 66.3704C134.593 66.3704 134.396 66.4095 134.212 66.4875C134.031 66.5635 133.883 66.6732 133.769 66.8167C133.655 66.9581 133.594 67.128 133.585 67.3264H132.639C132.649 66.9761 132.753 66.668 132.949 66.4021C133.147 66.1362 133.409 65.9283 133.734 65.7785C134.059 65.6287 134.42 65.5538 134.817 65.5538C135.232 65.5538 135.591 65.635 135.893 65.7975C136.197 65.9579 136.431 66.1721 136.596 66.4401C136.762 66.7081 136.845 67.0014 136.842 67.32C136.845 67.683 136.743 67.9911 136.539 68.2443C136.336 68.4975 136.066 68.6674 135.728 68.7539V68.8046C136.159 68.87 136.492 69.0409 136.728 69.3173C136.967 69.5938 137.085 69.9367 137.083 70.3461C137.085 70.7027 136.986 71.0224 136.785 71.3052C136.587 71.5879 136.316 71.8105 135.972 71.973C135.628 72.1334 135.234 72.2136 134.791 72.2136ZM140.543 72.2136C140.254 72.2094 139.969 72.1566 139.688 72.0553C139.409 71.954 139.156 71.7852 138.928 71.5489C138.7 71.3125 138.518 70.995 138.381 70.5961C138.246 70.1973 138.178 69.6993 138.178 69.1021C138.178 68.5366 138.234 68.0343 138.346 67.5954C138.46 67.1565 138.623 66.7861 138.837 66.4844C139.05 66.1805 139.307 65.9494 139.609 65.7912C139.911 65.6329 140.249 65.5538 140.625 65.5538C141.011 65.5538 141.354 65.6297 141.654 65.7817C141.953 65.9336 142.196 66.1436 142.382 66.4116C142.57 66.6796 142.689 66.9845 142.739 67.3264H141.774C141.709 67.0562 141.579 66.8357 141.385 66.6648C141.19 66.4939 140.937 66.4084 140.625 66.4084C140.15 66.4084 139.78 66.6152 139.514 67.0288C139.25 67.4424 139.117 68.0174 139.115 68.7539H139.163C139.274 68.5703 139.412 68.4142 139.574 68.2854C139.739 68.1546 139.922 68.0544 140.125 67.9847C140.33 67.913 140.545 67.8771 140.771 67.8771C141.146 67.8771 141.486 67.9689 141.79 68.1525C142.096 68.334 142.339 68.5851 142.521 68.9058C142.702 69.2266 142.793 69.5938 142.793 70.0074C142.793 70.421 142.699 70.7955 142.511 71.1311C142.326 71.4666 142.064 71.7325 141.726 71.9287C141.389 72.1229 140.994 72.2178 140.543 72.2136ZM140.539 71.3906C140.788 71.3906 141.011 71.3294 141.207 71.207C141.404 71.0846 141.559 70.92 141.673 70.7132C141.787 70.5064 141.844 70.2754 141.844 70.02C141.844 69.771 141.788 69.5442 141.676 69.3395C141.566 69.1348 141.414 68.9723 141.22 68.852C141.028 68.7318 140.809 68.6716 140.562 68.6716C140.374 68.6716 140.2 68.7075 140.039 68.7792C139.881 68.851 139.742 68.9502 139.622 69.0768C139.501 69.2034 139.406 69.349 139.337 69.5136C139.269 69.6761 139.235 69.8481 139.235 70.0295C139.235 70.2722 139.291 70.4969 139.403 70.7037C139.517 70.9105 139.672 71.0773 139.868 71.2039C140.067 71.3284 140.29 71.3906 140.539 71.3906ZM148.765 65.6424V72.125H147.783V66.6237H147.745L146.194 67.6366V66.6996L147.812 65.6424H148.765ZM152.781 72.2136C152.492 72.2094 152.207 72.1566 151.927 72.0553C151.648 71.954 151.395 71.7852 151.167 71.5489C150.939 71.3125 150.757 70.995 150.619 70.5961C150.484 70.1973 150.417 69.6993 150.417 69.1021C150.417 68.5366 150.473 68.0343 150.585 67.5954C150.699 67.1565 150.862 66.7861 151.075 66.4844C151.288 66.1805 151.546 65.9494 151.848 65.7912C152.149 65.6329 152.488 65.5538 152.864 65.5538C153.25 65.5538 153.593 65.6297 153.892 65.7817C154.192 65.9336 154.435 66.1436 154.62 66.4116C154.808 66.6796 154.927 66.9845 154.978 67.3264H154.013C153.947 67.0562 153.817 66.8357 153.623 66.6648C153.429 66.4939 153.176 66.4084 152.864 66.4084C152.389 66.4084 152.018 66.6152 151.753 67.0288C151.489 67.4424 151.356 68.0174 151.354 68.7539H151.401C151.513 68.5703 151.65 68.4142 151.813 68.2854C151.977 68.1546 152.161 68.0544 152.364 67.9847C152.568 67.913 152.783 67.8771 153.009 67.8771C153.385 67.8771 153.725 67.9689 154.028 68.1525C154.334 68.334 154.578 68.5851 154.76 68.9058C154.941 69.2266 155.032 69.5938 155.032 70.0074C155.032 70.421 154.938 70.7955 154.75 71.1311C154.564 71.4666 154.303 71.7325 153.965 71.9287C153.628 72.1229 153.233 72.2178 152.781 72.2136ZM152.778 71.3906C153.027 71.3906 153.25 71.3294 153.446 71.207C153.642 71.0846 153.797 70.92 153.911 70.7132C154.025 70.5064 154.082 70.2754 154.082 70.02C154.082 69.771 154.026 69.5442 153.915 69.3395C153.805 69.1348 153.653 68.9723 153.459 68.852C153.267 68.7318 153.047 68.6716 152.8 68.6716C152.613 68.6716 152.438 68.7075 152.278 68.7792C152.12 68.851 151.981 68.9502 151.86 69.0768C151.74 69.2034 151.645 69.349 151.575 69.5136C151.508 69.6761 151.474 69.8481 151.474 70.0295C151.474 70.2722 151.53 70.4969 151.642 70.7037C151.756 70.9105 151.911 71.0773 152.107 71.2039C152.305 71.3284 152.529 71.3906 152.778 71.3906ZM158.762 72.125L161.592 66.5287V66.4812H158.319V65.6424H162.605V66.5097L159.785 72.125H158.762ZM165.774 65.5538C166.063 65.5559 166.348 65.6086 166.629 65.712C166.909 65.8154 167.163 65.9843 167.388 66.2185C167.616 66.4527 167.798 66.7693 167.933 67.1681C168.07 67.5648 168.14 68.0586 168.142 68.6495C168.142 69.2171 168.085 69.7225 167.971 70.1656C167.857 70.6067 167.693 70.9791 167.48 71.283C167.269 71.5869 167.013 71.8179 166.711 71.9762C166.409 72.1345 166.07 72.2136 165.692 72.2136C165.306 72.2136 164.963 72.1376 164.663 71.9857C164.363 71.8338 164.12 71.6238 163.932 71.3558C163.744 71.0857 163.627 70.7755 163.581 70.4252H164.546C164.609 70.7037 164.738 70.9295 164.932 71.1026C165.128 71.2735 165.382 71.359 165.692 71.359C166.167 71.359 166.537 71.1522 166.803 70.7386C167.069 70.3229 167.203 69.7425 167.205 68.9976H167.154C167.045 69.1791 166.907 69.3353 166.743 69.4661C166.58 69.5969 166.398 69.6982 166.195 69.77C165.993 69.8417 165.776 69.8776 165.546 69.8776C165.173 69.8776 164.833 69.7858 164.527 69.6022C164.221 69.4186 163.977 69.1665 163.796 68.8457C163.614 68.525 163.524 68.1588 163.524 67.7473C163.524 67.338 163.616 66.9666 163.802 66.6332C163.99 66.2997 164.252 66.036 164.587 65.8418C164.925 65.6456 165.32 65.5496 165.774 65.5538ZM165.777 66.3768C165.53 66.3768 165.308 66.438 165.109 66.5603C164.913 66.6806 164.758 66.8442 164.644 67.051C164.53 67.2557 164.473 67.4836 164.473 67.7347C164.473 67.9858 164.528 68.2137 164.638 68.4184C164.75 68.621 164.902 68.7824 165.094 68.9027C165.288 69.0209 165.509 69.0799 165.758 69.0799C165.944 69.0799 166.117 69.0441 166.277 68.9723C166.438 68.9006 166.578 68.8014 166.698 68.6748C166.819 68.5461 166.913 68.4005 166.98 68.238C167.048 68.0755 167.081 67.9046 167.081 67.7252C167.081 67.4867 167.024 67.2652 166.911 67.0605C166.799 66.8558 166.645 66.6912 166.448 66.5667C166.252 66.4401 166.028 66.3768 165.777 66.3768ZM171.476 72.2136C171.022 72.2136 170.621 72.1355 170.273 71.9794C169.927 71.8232 169.656 71.608 169.459 71.3336C169.263 71.0593 169.166 70.747 169.168 70.3967C169.166 70.1224 169.222 69.8702 169.336 69.6402C169.452 69.4081 169.609 69.215 169.808 69.0609C170.006 68.9048 170.227 68.8056 170.472 68.7634V68.7254C170.149 68.6473 169.891 68.4743 169.697 68.2063C169.503 67.9383 169.407 67.6302 169.409 67.282C169.407 66.9507 169.494 66.6553 169.671 66.3958C169.851 66.1341 170.097 65.9283 170.409 65.7785C170.721 65.6287 171.077 65.5538 171.476 65.5538C171.87 65.5538 172.223 65.6297 172.533 65.7817C172.845 65.9315 173.091 66.1373 173.27 66.3989C173.45 66.6585 173.541 66.9528 173.543 67.282C173.541 67.6302 173.441 67.9383 173.245 68.2063C173.049 68.4743 172.793 68.6473 172.479 68.7254V68.7634C172.722 68.8056 172.94 68.9048 173.134 69.0609C173.331 69.215 173.487 69.4081 173.603 69.6402C173.721 69.8702 173.781 70.1224 173.783 70.3967C173.781 70.747 173.682 71.0593 173.486 71.3336C173.289 71.608 173.017 71.8232 172.669 71.9794C172.323 72.1355 171.925 72.2136 171.476 72.2136ZM171.476 71.4128C171.744 71.4128 171.976 71.3685 172.172 71.2798C172.368 71.1891 172.52 71.0635 172.628 70.9032C172.735 70.7407 172.79 70.5508 172.792 70.3334C172.79 70.1076 172.731 69.9082 172.615 69.7352C172.501 69.5621 172.346 69.426 172.15 69.3268C171.954 69.2277 171.729 69.1781 171.476 69.1781C171.22 69.1781 170.993 69.2277 170.795 69.3268C170.597 69.426 170.441 69.5621 170.327 69.7352C170.213 69.9082 170.157 70.1076 170.159 70.3334C170.157 70.5508 170.208 70.7407 170.314 70.9032C170.422 71.0635 170.575 71.1891 170.773 71.2798C170.971 71.3685 171.206 71.4128 171.476 71.4128ZM171.476 68.3962C171.691 68.3962 171.882 68.353 172.049 68.2665C172.215 68.1799 172.346 68.0597 172.441 67.9056C172.538 67.7516 172.588 67.5711 172.59 67.3643C172.588 67.1618 172.539 66.9845 172.444 66.8326C172.351 66.6806 172.222 66.5635 172.055 66.4812C171.888 66.3968 171.695 66.3546 171.476 66.3546C171.252 66.3546 171.056 66.3968 170.887 66.4812C170.72 66.5635 170.59 66.6806 170.498 66.8326C170.405 66.9845 170.359 67.1618 170.361 67.3643C170.359 67.5711 170.406 67.7516 170.501 67.9056C170.596 68.0597 170.727 68.1799 170.893 68.2665C171.062 68.353 171.256 68.3962 171.476 68.3962Z" fill="#161F28"/>
<rect x="28.2791" y="120.385" width="185.785" height="287.783" rx="9.26894" fill="#E9E9EB"/>
<path d="M28.2826 394.187C28.2826 403.6 25.7171 407.398 24.4343 408.121C29.3239 408.616 31.7536 405.024 32.3573 403.167C32.5384 401.432 29.7163 396.457 28.2826 394.187Z" fill="#E9E9EB"/>
<path d="M89.5925 594.14H211.764" stroke="#22374D" stroke-width="2.0362" stroke-linecap="round"/>
<rect x="48.3159" y="558.835" width="224.195" height="18.9365" rx="9.46823" fill="white" stroke="#B4B4B4" stroke-width="0.678733"/>
<circle cx="30.983" cy="568.11" r="10.621" fill="#E9E9EB"/>
<path d="M30.2485 572.437V563.783H31.7171V572.437H30.2485ZM26.6558 568.844V567.375H35.3099V568.844H26.6558Z" fill="#B4B4B4"/>
<defs>
<clipPath id="clip0_134_832">
<rect width="33.6733" height="33.6733" fill="white" transform="translate(134.356 22.4081)"/>
</clipPath>
</defs>
</svg>
